<?xml version="1.0" encoding="UTF-8"?>
<svg width="58px" height="57px" viewBox="0 0 58 57" version="1.1" xmlns="http://www.w3.org/2000/svg" xmlns:xlink="http://www.w3.org/1999/xlink">
    <title>DE41116D-87A7-4F54-8832-439D8C407136</title>
    <g id="Lupa-Tiles-Mobile-090620" stroke="none" stroke-width="1" fill="none" fill-rule="evenodd">
        <g id="02.-Choose-platform-" transform="translate(-265.000000, -512.000000)" fill-rule="nonzero">
            <g id="icon/instegram-copy" transform="translate(265.000000, 512.000000)">
                <g id="002-google">
                    <polygon id="Shape" fill="#D32E2A" points="43.5 14.25 43.5 28.6310271 39.2903438 32.5714286 34.8801808 28.6310271 31.0714286 26.987433 34.8133087 18.4643151"></polygon>
                    <polygon id="Shape" fill="#3A5BBC" points="43.5 42.75 28.3842018 42.75 28.3121656 42.5530562 24.8571429 39.6333753 28.3121656 34.4350505 30.1117722 30.5357143 40.1889316 33.7888421"></polygon>
                    <polygon id="Shape" fill="#FBBB00" points="29.4568501 14.4470515 33.1428571 18.356946 29.4568501 22.5649495 27.6846128 26.4642857 18.3987127 22.1656751 14.5 14.25 29.3859094 14.25"></polygon>
                    <polygon id="Shape" fill="#28B446" points="26.9285714 31.0701091 23.0863831 40.2904665 14.5 44.7857143 14.5 29.3002951 18.6428937 26.4642857 23.1198192 29.3002951"></polygon>
                    <polygon id="Shape" fill="#518EF8" points="58 28.5 43.7196716 42.75 31.0714286 30.2476842 35.1514746 28.5 43.9237241 28.5"></polygon>
                    <polygon id="Shape" fill="#91C646" points="29 42.8991125 29 57 14.5 42.9658842 27.2217669 30.5357143 29 34.5454147 29 34.6376232"></polygon>
                    <polygon id="Shape" fill="#FFD837" points="26.9285714 26.7523158 22.8485254 28.5 14.0762759 28.5 0 28.5 14.2803284 14.25"></polygon>
                    <polygon id="Shape" fill="#F14336" points="43.5 14.0341158 30.7782331 26.4642857 29 22.4545853 29 22.3623768 29 14.1009972 29 0"></polygon>
                </g>
            </g>
        </g>
    </g>
</svg>